<svg xmlns="http://www.w3.org/2000/svg" viewBox="0 0 320 220" role="img" aria-labelledby="title"><title id="title">Abstract artificial intelligence illustration</title><defs><linearGradient id="a" x1="0" x2="1"><stop stop-color="#4378ff"/><stop offset="1" stop-color="#39d8ca"/></linearGradient></defs><rect width="320" height="220" rx="28" fill="#111a3b"/><g stroke="url(#a)" fill="none" stroke-width="3"><rect x="97" y="54" width="126" height="112" rx="28"/><path d="M128 42v20M160 42v20M192 42v20M128 166v20M160 166v20M192 166v20M85 82h22M85 114h22M85 146h22M223 82h22M223 114h22M223 146h22"/><circle cx="136" cy="107" r="9" fill="#39d8ca"/><circle cx="184" cy="107" r="9" fill="#39d8ca"/><path d="M132 137q28 19 56 0"/></g><circle cx="160" cy="25" r="7" fill="#8d6bff"/><text x="160" y="207" text-anchor="middle" fill="#fff" font-family="Arial" font-size="12" letter-spacing="3">INTELLIGENCE</text></svg>
